# xmcd
#
# Track frame offsets: 
#        150
#        25172
#        40957
#        62187
#        83577
#        94825
#        119847
#        131555
#        145092
#        164222
#        183065
#        205870
#        221420
#        242082
#        255392
#        271272
#        292012
#        309110
#        325115
#
# Disc length: 4561 seconds
#
# Revision: 3
# Processed by: cddbd v1.5.2PL0 Copyright (c) Steve Scherf et al.
# Submitted via: ExactAudioCopy v0.99pb4
#
DISCID=1411cf13
DTITLE=John Lee Hooker - Boogie Chillun
DYEAR=1972
DGENRE=
TTITLE0=I Just Can't Hold On Much Longer
TTITLE1=I'm Gonna Keep On Walking
TTITLE2=I Was Standing By The Wayside
TTITLE3=T.B. Is Killing Me
TTITLE4=Run On Babe
TTITLE5=This World
TTITLE6=I Like To See You Walk
TTITLE7=It's You I Love Baby
TTITLE8=Driftin' And Driftin'
TTITLE9=You Gonna Miss Me
TTITLE10=You're Nice And Kind To Me Lou Della
TTITLE11=I Need Some Money
TTITLE12=I Want To Get Married
TTITLE13=Boogie Chillun
TTITLE14=Night Time Is The Right Time
TTITLE15=You Don't Move Me Baby
TTITLE16=Yoy Been Dealin' With The Devil
TTITLE17=Cruel Little Baby
TTITLE18=I Got The Key To The Highway
EXTD=
EXTT0=
EXTT1=
EXTT2=
EXTT3=
EXTT4=
EXTT5=
EXTT6=
EXTT7=
EXTT8=
EXTT9=
EXTT10=
EXTT11=
EXTT12=
EXTT13=
EXTT14=
EXTT15=
EXTT16=
EXTT17=
EXTT18=
PLAYORDER=
